Coordinates
version=1
nRows=17
nColumns=34
inDegrees=yes

Units are S.I. units (second, meters, Newtons, ...)
If the header above contains a line with 'inDegrees', this indicates whether rotational values are in degrees (yes) or radians (no).

endheader
time	pelvis_tilt	pelvis_list	pelvis_rotation	pelvis_tx	pelvis_ty	pelvis_tz	hip_flexion_r	hip_adduction_r	hip_rotation_r	knee_angle_r	ankle_angle_r	subtalar_angle_r	mtp_angle_r	hip_flexion_l	hip_adduction_l	hip_rotation_l	knee_angle_l	ankle_angle_l	subtalar_angle_l	mtp_angle_l	lumbar_extension	lumbar_bending	lumbar_rotation	arm_flex_r	arm_add_r	arm_rot_r	elbow_flex_r	pro_sup_r	arm_flex_l	arm_add_l	arm_rot_l	elbow_flex_l	pro_sup_l
      7.50000000	     12.28126517	     -6.12468803	    -29.54344300	      2.35899514	      1.00373115	      0.48980295	     -1.77741571	     -6.38953424	     -1.69519405	     47.11331117	     19.23244057	      4.86921606	      0.00000000	    -19.93752480	      5.67294006	      2.40150654	      7.69886482	     21.88632414	     -7.34994297	      0.00000000	     -7.36711803	     -3.80924054	      6.71937959	     24.19184785	     -5.60953084	     30.69329143	     15.26672830	    119.73558887	     19.04354782	     -5.38100304	     12.19746600	     18.58571108	    117.83053459
      7.51666670	     12.07192981	     -5.77754328	    -29.65617698	      2.36022765	      1.00316655	      0.48855108	     -0.98697083	     -6.69053255	     -1.55093000	     47.62748449	     17.92767653	      3.79819127	      0.00000000	    -19.81546927	      6.04090325	      2.44860909	      7.24483581	     21.71955074	     -7.35323131	      0.00000000	     -7.12791718	     -3.75905036	      6.95635290	     23.89983143	     -6.08553796	     29.92289273	     14.85147445	    119.66309764	     19.32441306	     -5.25134449	     12.14696655	     19.74912192	    117.82187087
      7.53333330	     11.99374510	     -5.53333544	    -29.61583321	      2.36228037	      1.00277149	      0.48763226	     -0.69455977	     -7.01734326	     -1.64922918	     47.68260212	     16.92888834	      3.17461334	      0.00000000	    -19.92108215	      6.32746450	      2.51399636	      6.81320924	     21.70445636	     -7.27252846	      0.00000000	     -6.96245974	     -3.66533346	      7.18532226	     23.41126999	     -6.65946573	     29.41337763	     14.41721880	    119.58466731	     19.51309751	     -5.09144844	     12.16154229	     20.90642514	    117.83666989
      7.55000000	     11.88404523	     -5.28227741	    -29.54178141	      2.36507528	      1.00224649	      0.48697708	     -0.58200649	     -7.24155365	     -1.64868436	     47.44225218	     15.99109215	      2.16266069	      0.00000000	    -20.07172917	      6.59322342	      2.66590600	      6.34426280	     21.55813651	     -7.08582053	      0.00000000	     -6.63114834	     -3.49316460	      7.38141024	     22.80731438	     -7.24375584	     28.55456244	     14.04318480	    119.39945158	     19.36553030	     -5.03045479	     12.20299492	     22.66079075	    117.88234044
      7.56666670	     11.73515926	     -5.08578992	    -29.44073025	      2.36724642	      1.00189397	      0.48668975	     -0.60421270	     -7.41649207	     -1.95772468	     46.86000186	     14.76203142	      1.27158850	      0.00000000	    -20.16487539	      6.73080175	      2.77684478	      5.88929561	     21.52001813	     -6.96058128	      0.00000000	     -6.36744477	     -3.39525431	      7.67248712	     22.17403402	     -7.79769499	     27.82448091	     13.76313833	    119.21981466	     19.36605113	     -5.02787463	     12.27025460	     24.31598016	    117.94810872
      7.58333330	     11.64947655	     -4.92122506	    -29.22650726	      2.36921493	      1.00173355	      0.48645866	     -0.91556774	     -7.41344234	     -2.07620535	     45.86669657	     13.60683532	     -0.00948273	      0.00000000	    -20.27213965	      6.80753145	      2.94144485	      5.54796252	     21.36012907	     -6.77529307	      0.00000000	     -6.17773161	     -3.33418637	      7.75348600	     21.59914647	     -8.25730866	     26.90082373	     13.68079858	    118.97797493	     19.24353600	     -5.18802758	     12.45170953	     26.30210792	    118.07419643
      7.60000000	     11.82293684	     -5.36368061	    -28.83883797	      2.37114784	      1.00254961	      0.48633632	     -2.31969643	     -6.64040334	     -1.88000411	     43.93935409	     12.35837164	     -1.90827361	      0.00000000	    -20.88123361	      6.38120304	      3.21819390	      5.37369580	     21.43818807	     -6.49771459	      0.00000000	     -6.60504523	     -2.80293558	      7.75783882	     20.99305187	     -8.55826291	     24.16984161	     13.72623584	    118.29099752	     19.38127164	     -5.19607170	     12.58218995	     27.77714303	    118.34361151
      7.61666670	     11.77072822	     -5.08486280	    -28.70235789	      2.37320207	      1.00221984	      0.48616373	     -2.87716526	     -6.85910034	     -2.09763712	     42.56039428	     11.91892016	     -2.12717552	      0.00000000	    -21.01072765	      6.59051258	      3.28572440	      4.95352735	     21.20518375	     -6.08582409	      0.00000000	     -6.34347086	     -2.83741596	      7.84722238	     20.38711450	     -9.00293930	     23.72401929	     13.75816891	    118.23024661	     19.33968623	     -5.34543788	     12.95493629	     29.37384180	    118.46442100
      7.63333330	     11.84053952	     -5.24718524	    -28.43272289	      2.37518097	      1.00240847	      0.48601470	     -4.08419792	     -6.60529494	     -2.26991325	     40.66129787	     12.08480607	     -2.19399155	      0.00000000	    -21.44574807	      6.39990433	      3.40069122	      4.63732458	     21.27803099	     -5.64284079	      0.00000000	     -6.45064112	     -2.50302137	      7.68607383	     19.97190096	     -9.33724314	     23.00440850	     13.72741653	    118.09089103	     19.26655711	     -5.57543746	     13.59604984	     30.93434037	    118.62757754
      7.65000000	     12.19794139	     -5.94208688	    -27.95176178	      2.37739288	      1.00351906	      0.48595472	     -6.30882546	     -5.96034499	     -2.79870503	     38.04739132	     12.66011828	     -1.82800519	      0.00000000	    -22.52505226	      5.77301428	      3.36574934	      4.21643396	     21.44273483	     -4.81536763	      0.00000000	     -7.12164835	     -1.80357138	      7.52099010	     19.59754925	     -9.66025045	     21.52931644	     13.75031312	    117.84967819	     19.62506086	     -5.53987306	     14.43483724	     31.65354179	    118.88799073
      7.66666670	     11.99368558	     -6.09096905	    -27.92894780	      2.37977749	      1.00317008	      0.48638487	     -7.53877310	     -5.49131331	     -2.45551562	     35.87212109	     14.50549002	     -1.20677087	      0.00000000	    -22.73410456	      5.55754670	      3.35690430	      3.89253320	     21.58201055	     -4.56233505	      0.00000000	     -6.78728460	     -1.32788199	      7.55322236	     19.22562712	    -10.02414378	     21.05159139	     13.69272537	    117.78081021	     19.51351798	     -5.51179932	     14.83080910	     32.78055123	    119.00302580
      7.68333330	     12.13176431	     -6.75177051	    -27.63799446	      2.38278500	      1.00388517	      0.48747511	     -9.81959150	     -4.74176862	     -2.79831935	     33.00315512	     15.87090812	     -0.24637511	      0.00000000	    -23.64326489	      4.90313480	      3.38003962	      3.47638594	     21.71964176	     -4.07143505	      0.00000000	     -6.87654595	     -0.65774953	      7.68752778	     18.55876904	    -10.39941963	     20.15391134	     13.69976277	    117.63799258	     19.42776374	     -5.42143864	     15.41825190	     34.08161794	    119.21747270
      7.70000000	     12.17828892	     -7.14177188	    -27.12428394	      2.38567222	      1.00434050	      0.48809668	    -11.77711946	     -3.99351581	     -2.84601953	     30.22831507	     16.45576981	     -0.30595082	      0.00000000	    -24.21875930	      4.36305251	      3.60745805	      3.18260897	     21.86669765	     -3.67130078	      0.00000000	     -6.70707800	     -0.21054626	      7.61410119	     17.86695567	    -10.71100755	     19.20440873	     13.74294384	    117.52312779	     19.39728790	     -5.38507824	     16.35332540	     35.26477491	    119.52947815
      7.71666670	     12.11315757	     -7.23872855	    -26.69331911	      2.38899785	      1.00428544	      0.48888615	    -13.42188969	     -3.42250874	     -2.40648133	     27.52110061	     16.91892796	     -0.58619759	      0.00000000	    -24.61723639	      4.07121921	      3.97837689	      2.78252443	     21.90495870	     -3.30132704	      0.00000000	     -6.21214281	      0.05822920	      7.57602460	     17.04754896	    -10.97501629	     18.40425789	     13.83509971	    117.45319017	     19.12925024	     -5.44575959	     17.43650556	     36.53623897	    119.74817918
      7.73333330	     12.27468217	     -7.09977445	    -26.06154559	      2.39240952	      1.00417559	      0.48999556	    -15.54117508	     -2.99539218	     -1.58682373	     24.21134700	     17.41963073	     -0.91246616	      0.00000000	    -25.14993467	      3.98902362	      4.55059906	      2.32902658	     21.89211243	     -2.95820935	      0.00000000	     -5.85734376	     -0.05307145	      7.25075531	     16.20854353	    -11.00599973	     17.39060903	     14.02172181	    117.34139970	     18.81724053	     -5.60898463	     18.14405223	     37.56179234	    119.74817918
      7.75000000	     12.57222625	     -6.71943391	    -25.40611205	      2.39473968	      1.00378955	      0.49081869	    -17.89133752	     -2.80836559	     -0.29862013	     20.43317358	     18.27794539	     -1.17859504	      0.00000000	    -25.43996411	      4.17066322	      5.35612776	      2.22204485	     21.81322747	     -2.89030899	      0.00000000	     -5.77740786	     -0.51122727	      6.81122886	     15.76283040	    -10.83868111	     16.13858046	     13.92624138	    117.20343646	     18.70828021	     -5.83165204	     18.60571887	     38.35944791	    119.74817918
      7.76666670	     12.71333309	     -6.13841237	    -24.99339595	      2.39672283	      1.00278877	      0.49218493	    -19.80529688	     -2.88280826	      0.88700128	     17.07950904	     19.56711016	     -1.43095088	      0.00000000	    -25.33464512	      4.55296510	      6.16025019	      2.44580662	     21.85669907	     -3.17820793	      0.00000000	     -5.48372403	     -1.22865567	      6.65928272	     15.27277297	    -10.59432439	     15.04425055	     13.72271008	    117.13297371	     18.57828271	     -6.15494631	     19.32486450	     39.09462386	    119.74817918
